<?xml version="1.0" encoding="utf-8"?>
<!-- Generator: Adobe Illustrator 24.3.0, SVG Export Plug-In . SVG Version: 6.00 Build 0)  -->
<svg version="1.1" id="Capa_1" xmlns="http://www.w3.org/2000/svg" xmlns:xlink="http://www.w3.org/1999/xlink" x="0px" y="0px"
	 viewBox="0 0 1920 1080" style="enable-background:new 0 0 1920 1080;" xml:space="preserve">
<style type="text/css">
	.st0{fill:#121C26;}
	.st1{display:none;}
	.st2{display:inline;fill:#0F1C29;}
	.st3{display:inline;}
	.st4{fill:#0F1C29;}
</style>
<g id="bg">
	<rect class="st0" width="1920" height="1080"/>
</g>
<g id="people" class="st1">
	<ellipse class="st2" cx="1060.5" cy="879.9" rx="3.5" ry="19.1"/>
	<ellipse class="st2" cx="1060.5" cy="862.2" rx="6.5" ry="6.2"/>
	<ellipse class="st2" cx="870.2" cy="879.9" rx="2" ry="19.1"/>
	<ellipse class="st2" cx="870.2" cy="862.2" rx="6.5" ry="6.2"/>
	<ellipse class="st2" cx="997.2" cy="879.9" rx="2" ry="19.1"/>
	<ellipse class="st2" cx="997.2" cy="862.2" rx="6.5" ry="6.2"/>
	<ellipse class="st2" cx="598.2" cy="879.9" rx="2" ry="19.1"/>
	<ellipse class="st2" cx="598.2" cy="862.2" rx="6.5" ry="6.2"/>
	<ellipse class="st2" cx="410.2" cy="879.9" rx="2" ry="19.1"/>
	<ellipse class="st2" cx="410.2" cy="862.2" rx="6.5" ry="6.2"/>
	<ellipse class="st2" cx="780.5" cy="879.9" rx="3.5" ry="19.1"/>
	<ellipse class="st2" cx="780.5" cy="862.2" rx="6.5" ry="6.2"/>
	<ellipse class="st2" cx="795.5" cy="879.9" rx="3.5" ry="19.1"/>
	<ellipse class="st2" cx="795.5" cy="862.2" rx="6.5" ry="6.2"/>
	<ellipse class="st2" cx="618.5" cy="881.9" rx="6.5" ry="19.1"/>
	<ellipse class="st2" cx="618.5" cy="864.2" rx="7.5" ry="6.2"/>
	<ellipse class="st2" cx="339.5" cy="881.9" rx="6.5" ry="19.1"/>
	<ellipse class="st2" cx="339.5" cy="864.2" rx="7.5" ry="6.2"/>
	<ellipse class="st2" cx="959.5" cy="881.9" rx="6.5" ry="19.1"/>
	<ellipse class="st2" cx="959.5" cy="864.2" rx="7.5" ry="6.2"/>
	<ellipse class="st2" cx="637.5" cy="879.9" rx="3.5" ry="19.1"/>
	<ellipse class="st2" cx="637.5" cy="862.2" rx="6.5" ry="6.2"/>
	<ellipse class="st2" cx="87.5" cy="879.9" rx="3.5" ry="19.1"/>
	<ellipse class="st2" cx="87.5" cy="862.2" rx="6.5" ry="6.2"/>
	<ellipse class="st2" cx="68.5" cy="879.9" rx="3.5" ry="19.1"/>
	<ellipse class="st2" cx="68.5" cy="862.2" rx="6.5" ry="6.2"/>
</g>
<g id="trees" class="st1">
	<ellipse class="st2" cx="502.9" cy="867" rx="4.4" ry="41"/>
	
		<ellipse transform="matrix(0.3428 -0.9394 0.9394 0.3428 -443.7935 1027.9559)" class="st2" cx="512.8" cy="831.2" rx="1.9" ry="12.3"/>
	
		<ellipse transform="matrix(8.767731e-02 -0.9961 0.9961 8.767731e-02 -356.3348 1267.4301)" class="st2" cx="513.8" cy="828.3" rx="1.9" ry="12.2"/>
	
		<ellipse transform="matrix(0.6631 -0.7485 0.7485 0.6631 -452.3995 662.6428)" class="st2" cx="510" cy="833.9" rx="1.9" ry="12.4"/>
	
		<ellipse transform="matrix(0.9395 -0.3427 0.3427 0.9395 -255.2351 218.4752)" class="st2" cx="490.6" cy="831.5" rx="13.5" ry="1.9"/>
	
		<ellipse transform="matrix(0.2922 -0.9564 0.9564 0.2922 -440.4972 1055.271)" class="st2" cx="492.7" cy="825.2" rx="1.9" ry="12.3"/>
	
		<ellipse transform="matrix(0.9627 -0.2707 0.2707 0.9627 -204.1203 168.5845)" class="st2" cx="509" cy="824.1" rx="12.2" ry="1.9"/>
	
		<ellipse transform="matrix(0.9961 -8.767734e-02 8.767734e-02 0.9961 -70.715 46.2797)" class="st2" cx="491.5" cy="828.1" rx="11.6" ry="1.9"/>
	
		<ellipse transform="matrix(0.7882 -0.6154 0.6154 0.7882 -409.0248 480.8422)" class="st2" cx="494.1" cy="834.7" rx="12.3" ry="2"/>
	
		<ellipse transform="matrix(0.5105 -0.8599 0.8599 0.5105 -464.6123 832.2019)" class="st2" cx="498.7" cy="824.2" rx="1.4" ry="5.9"/>
	
		<ellipse transform="matrix(0.8601 -0.5101 0.5101 0.8601 -349.7939 373.8345)" class="st2" cx="506.7" cy="824.7" rx="5.9" ry="1.4"/>
	<ellipse class="st2" cx="1022.9" cy="867" rx="4.4" ry="41"/>
	
		<ellipse transform="matrix(0.3428 -0.9394 0.9394 0.3428 -102.0604 1516.4852)" class="st2" cx="1032.9" cy="831.2" rx="1.9" ry="12.3"/>
	
		<ellipse transform="matrix(8.767731e-02 -0.9961 0.9961 8.767731e-02 118.0998 1785.4619)" class="st2" cx="1033.8" cy="828.3" rx="1.9" ry="12.2"/>
	
		<ellipse transform="matrix(0.6631 -0.7485 0.7485 0.6631 -277.2227 1051.8311)" class="st2" cx="1030" cy="833.9" rx="1.9" ry="12.4"/>
	
		<ellipse transform="matrix(0.9395 -0.3427 0.3427 0.9395 -223.7569 396.6699)" class="st2" cx="1010.6" cy="831.5" rx="13.5" ry="1.9"/>
	
		<ellipse transform="matrix(0.2922 -0.9564 0.9564 0.2922 -72.4601 1552.5238)" class="st2" cx="1012.6" cy="825.2" rx="1.9" ry="12.3"/>
	
		<ellipse transform="matrix(0.9624 -0.2716 0.2716 0.9624 -185.3779 311.1996)" class="st2" cx="1031.5" cy="825.3" rx="12.3" ry="1.9"/>
	
		<ellipse transform="matrix(0.9961 -8.767734e-02 8.767734e-02 0.9961 -68.7105 91.8716)" class="st2" cx="1011.5" cy="828.1" rx="11.6" ry="1.9"/>
	<ellipse transform="matrix(0.7882 -0.6154 0.6154 0.7882 -298.9 800.8471)" class="st2" cx="1014.1" cy="834.7" rx="12.3" ry="2"/>
	
		<ellipse transform="matrix(0.5101 -0.8601 0.8601 0.5101 -209.5431 1279.2838)" class="st2" cx="1018.2" cy="823.6" rx="1.4" ry="5.9"/>
	
		<ellipse transform="matrix(0.8599 -0.5105 0.5105 0.8599 -276.9189 639.926)" class="st2" cx="1027.1" cy="824.4" rx="5.9" ry="1.4"/>
	<ellipse class="st2" cx="385.9" cy="867" rx="4.4" ry="41"/>
	
		<ellipse transform="matrix(0.3428 -0.9394 0.9394 0.3428 -520.6819 918.0441)" class="st2" cx="395.8" cy="831.2" rx="1.9" ry="12.3"/>
	
		<ellipse transform="matrix(8.767731e-02 -0.9961 0.9961 8.767731e-02 -463.0835 1150.8718)" class="st2" cx="396.8" cy="828.3" rx="1.9" ry="12.2"/>
	
		<ellipse transform="matrix(0.6631 -0.7485 0.7485 0.6631 -491.8104 575.0797)" class="st2" cx="393" cy="833.9" rx="1.9" ry="12.4"/>
	
		<ellipse transform="matrix(0.9395 -0.3427 0.3427 0.9395 -262.3199 178.3836)" class="st2" cx="373.6" cy="831.5" rx="13.5" ry="1.9"/>
	
		<ellipse transform="matrix(0.2922 -0.9564 0.9564 0.2922 -523.3113 943.3819)" class="st2" cx="375.7" cy="825.2" rx="1.9" ry="12.3"/>
	
		<ellipse transform="matrix(0.9627 -0.2707 0.2707 0.9627 -208.4278 136.9787)" class="st2" cx="392.3" cy="823.9" rx="12.2" ry="1.9"/>
	
		<ellipse transform="matrix(0.9961 -8.767734e-02 8.767734e-02 0.9961 -71.1663 36.0216)" class="st2" cx="374.5" cy="828.1" rx="11.6" ry="1.9"/>
	
		<ellipse transform="matrix(0.7882 -0.6154 0.6154 0.7882 -433.8009 408.8467)" class="st2" cx="377.1" cy="834.7" rx="12.3" ry="2"/>
	
		<ellipse transform="matrix(0.5105 -0.8599 0.8599 0.5105 -521.8779 731.6061)" class="st2" cx="381.7" cy="824.2" rx="1.4" ry="5.9"/>
	
		<ellipse transform="matrix(0.8601 -0.5101 0.5101 0.8601 -366.1261 314.1358)" class="st2" cx="389.7" cy="824.7" rx="5.9" ry="1.4"/>
	<ellipse class="st2" cx="225.9" cy="867" rx="4.4" ry="41"/>
	
		<ellipse transform="matrix(0.3428 -0.9394 0.9394 0.3428 -625.8304 767.7229)" class="st2" cx="235.8" cy="831.2" rx="1.9" ry="12.3"/>
	
		<ellipse transform="matrix(8.767731e-02 -0.9961 0.9961 8.767731e-02 -609.0665 991.4832)" class="st2" cx="236.8" cy="828.3" rx="1.9" ry="12.2"/>
	
		<ellipse transform="matrix(0.6631 -0.7485 0.7485 0.6631 -545.7117 455.3291)" class="st2" cx="233" cy="833.9" rx="1.9" ry="12.4"/>
	
		<ellipse transform="matrix(0.9395 -0.3427 0.3427 0.9395 -272.0034 123.5538)" class="st2" cx="213.6" cy="831.5" rx="13.4" ry="1.9"/>
	
		<ellipse transform="matrix(0.2922 -0.9564 0.9564 0.2922 -636.5529 790.3864)" class="st2" cx="215.7" cy="825.2" rx="1.9" ry="12.3"/>
	
		<ellipse transform="matrix(0.9627 -0.2707 0.2707 0.9627 -214.3218 93.7529)" class="st2" cx="232.6" cy="823.7" rx="12.2" ry="1.9"/>
	
		<ellipse transform="matrix(0.9961 -8.767734e-02 8.767734e-02 0.9961 -71.7832 21.9929)" class="st2" cx="214.5" cy="828.1" rx="11.6" ry="1.9"/>
	
		<ellipse transform="matrix(0.7882 -0.6154 0.6154 0.7882 -467.6872 310.3815)" class="st2" cx="217.1" cy="834.7" rx="12.3" ry="2"/>
	
		<ellipse transform="matrix(0.5105 -0.8599 0.8599 0.5105 -600.195 594.0355)" class="st2" cx="221.7" cy="824.2" rx="1.4" ry="5.9"/>
	
		<ellipse transform="matrix(0.8599 -0.5105 0.5105 0.8599 -388.5957 233.0062)" class="st2" cx="230.1" cy="824.3" rx="5.9" ry="1.4"/>
	<ellipse class="st2" cx="176.9" cy="867" rx="4.4" ry="41"/>
	
		<ellipse transform="matrix(0.3428 -0.9394 0.9394 0.3428 -658.0375 721.6842)" class="st2" cx="186.8" cy="831.2" rx="1.9" ry="12.3"/>
	
		<ellipse transform="matrix(8.767731e-02 -0.9961 0.9961 8.767731e-02 -653.7773 942.6669)" class="st2" cx="187.8" cy="828.3" rx="1.9" ry="12.2"/>
	<ellipse transform="matrix(0.6631 -0.7485 0.7485 0.6631 -562.2237 418.652)" class="st2" cx="184" cy="834" rx="1.9" ry="12.4"/>
	
		<ellipse transform="matrix(0.9395 -0.3427 0.3427 0.9395 -274.9707 106.7617)" class="st2" cx="164.6" cy="831.5" rx="13.4" ry="1.9"/>
	
		<ellipse transform="matrix(0.2922 -0.9564 0.9564 0.2922 -671.2349 743.5279)" class="st2" cx="166.7" cy="825.2" rx="1.9" ry="12.3"/>
	
		<ellipse transform="matrix(0.9627 -0.2707 0.2707 0.9627 -216.1257 80.5159)" class="st2" cx="183.8" cy="823.6" rx="12.2" ry="1.9"/>
	
		<ellipse transform="matrix(0.9961 -8.767734e-02 8.767734e-02 0.9961 -71.9715 17.6974)" class="st2" cx="165.5" cy="828.1" rx="11.6" ry="1.9"/>
	
		<ellipse transform="matrix(0.7882 -0.6154 0.6154 0.7882 -478.0651 280.2327)" class="st2" cx="168.1" cy="834.7" rx="12.3" ry="2"/>
	
		<ellipse transform="matrix(0.5105 -0.8599 0.8599 0.5105 -624.1791 551.9071)" class="st2" cx="172.7" cy="824.2" rx="1.4" ry="5.9"/>
	
		<ellipse transform="matrix(0.8599 -0.5105 0.5105 0.8599 -395.4667 207.9891)" class="st2" cx="181.1" cy="824.3" rx="5.9" ry="1.4"/>
	<ellipse class="st2" cx="14.9" cy="867" rx="4.4" ry="41"/>
	<g id="copa" class="st3">
		<path class="st4" d="M34,840.5c0,0.2,0,0.3,0,0.5c0,0.7-0.2,1.4-0.3,2.1c-0.1,0.3-0.2,0.6-0.3,0.9c-0.2,0.5-0.4,0.9-0.6,1.3l0,0
			c-0.3,0.5-0.5,0.9-0.9,1.4c-0.4,0.6-0.8,1.1-1.3,1.5c-0.2,0.2-0.3,0.3-0.5,0.5c-0.9,0.9-2,1.7-3.1,2.3l-0.9,0.5
			c-0.7,0.4-1.4,0.7-2.1,0.9c-0.5,0.2-1,0.3-1.4,0.5s-1.1,0.3-1.7,0.5c-0.2,0.1-0.5,0.1-0.7,0.2s-0.7,0.1-1,0.2
			c-1,0.2-2.1,0.3-3.1,0.3h-1c-1.1,0-2.2-0.1-3.2-0.2l-1-0.1c-0.6-0.1-1.2-0.2-1.7-0.4c0,0-0.1,0-0.1,0c-1-0.2-2-0.5-2.9-0.9
			l-0.6-0.3c-0.5-0.2-0.9-0.4-1.4-0.6l-0.8-0.4c-0.4-0.2-0.8-0.5-1.2-0.7s-0.5-0.3-0.7-0.5c-0.5-0.3-0.9-0.7-1.3-1.1v-16.6
			c0.7-0.7,1.5-1.3,2.4-1.8l0.3-0.2c0.9-0.5,1.7-1,2.7-1.3l0.4-0.2c0.9-0.4,1.9-0.7,2.9-0.9l0.3-0.1c0.7-0.2,1.3-0.3,2-0.4H11
			c0.6-0.1,1.3-0.2,2-0.2c0.3,0,0.6,0,0.9,0l0,0L15,827c0.3,0,0.6,0,0.9,0H16l1,0c0.7,0.1,1.4,0.1,2.1,0.2l0.8,0.1
			c0.7,0.1,1.5,0.3,2.2,0.5c0.3,0.1,0.6,0.2,0.9,0.3c0.7,0.2,1.5,0.5,2.2,0.8l0.5,0.2c0.5,0.2,1,0.5,1.5,0.8
			c0.3,0.2,0.5,0.3,0.7,0.5s0.7,0.5,1.1,0.8s0.6,0.5,0.9,0.7c0.7,0.6,1.3,1.2,1.8,1.9l0.2,0.3c0.6,0.9,1.1,1.8,1.5,2.8
			c0,0.1,0.1,0.2,0.1,0.2c0.3,0.9,0.5,1.9,0.5,2.9l0,0C34,840.3,34,840.4,34,840.5z"/>
		<ellipse class="st4" cx="18.5" cy="854" rx="2.5" ry="2"/>
		<ellipse class="st4" cx="22" cy="852.5" rx="2" ry="2.5"/>
		<ellipse class="st4" cx="24.5" cy="851" rx="2.5" ry="3"/>
		<ellipse class="st4" cx="28" cy="849.5" rx="3" ry="2.5"/>
		<ellipse class="st4" cx="31" cy="846.5" rx="2" ry="2.5"/>
		<circle class="st4" cx="33" cy="845" r="2"/>
		<circle class="st4" cx="33" cy="842" r="2"/>
		<circle class="st4" cx="34" cy="839" r="2"/>
		<circle class="st4" cx="32" cy="836" r="2"/>
		<ellipse class="st4" cx="30" cy="833.5" rx="2" ry="2.5"/>
		<ellipse class="st4" cx="28" cy="831.5" rx="2" ry="1.5"/>
		<ellipse class="st4" cx="26.5" cy="830" rx="1.5" ry="2"/>
		<ellipse class="st4" cx="24" cy="828.5" rx="2" ry="1.5"/>
		<circle class="st4" cx="21" cy="828" r="2"/>
		<circle class="st4" cx="18" cy="827" r="2"/>
		<ellipse class="st4" cx="15" cy="827" rx="2" ry="1"/>
		<circle class="st4" cx="12.5" cy="827.5" r="1.5"/>
		<ellipse class="st4" cx="9.5" cy="827" rx="1.5" ry="1"/>
		<ellipse class="st4" cx="6.5" cy="828" rx="2.5" ry="1"/>
		<ellipse class="st4" cx="4" cy="829.5" rx="2" ry="1.5"/>
		<path class="st4" d="M4,832c-0.2,1.2-1.3,2.1-2.5,2c-0.2,0-0.3,0-0.5,0c-0.4-0.1-0.7-0.2-1-0.4v-3.2c0.5-0.3,1-0.4,1.5-0.4
			c0.2,0,0.4,0,0.7,0.1c0.2,0,0.4,0.1,0.5,0.2c0.4,0.2,0.7,0.4,1,0.7C3.9,831.3,4,831.6,4,832z"/>
		<path class="st4" d="M1,834.5c0,0.8-0.3,1.6-1,2.2v-4.3c0.5,0.4,0.9,1,1,1.7C1,834.2,1,834.3,1,834.5z"/>
		<path class="st4" d="M1,847c0,0.4-0.1,0.7-0.3,1c-0.2,0.3-0.4,0.5-0.7,0.7v-3.5C0.6,845.6,1,846.3,1,847z"/>
		<path class="st4" d="M2,850c0,0.1,0,0.2,0,0.3c0,0.6-0.4,1.1-0.9,1.5C1,851.9,0.7,852,0.5,852c-0.2,0-0.3,0-0.5-0.1v-3.8
			c0.2-0.1,0.3-0.1,0.5-0.1h0.2c0.6,0.2,1,0.6,1.1,1.2C2,849.4,2,849.7,2,850z"/>
		<ellipse class="st4" cx="2.5" cy="851" rx="1.5" ry="2"/>
		<ellipse class="st4" cx="4.5" cy="852" rx="1.5" ry="2"/>
		<ellipse class="st4" cx="7" cy="853.5" rx="2" ry="2.5"/>
		<ellipse class="st4" cx="10" cy="854.5" rx="2" ry="1.5"/>
	</g>
	<ellipse class="st2" cx="297.9" cy="867" rx="4.4" ry="41"/>
	<g id="copa-2" class="st3">
		<ellipse class="st4" cx="298" cy="840.5" rx="19" ry="13.5"/>
		<ellipse class="st4" cx="301.5" cy="854" rx="2.5" ry="2"/>
		<ellipse class="st4" cx="305" cy="852.5" rx="2" ry="2.5"/>
		<ellipse class="st4" cx="307.5" cy="851" rx="2.5" ry="3"/>
		<ellipse class="st4" cx="311" cy="849.5" rx="3" ry="2.5"/>
		<ellipse class="st4" cx="314" cy="846.5" rx="2" ry="2.5"/>
		<circle class="st4" cx="316" cy="845" r="2"/>
		<circle class="st4" cx="316" cy="842" r="2"/>
		<circle class="st4" cx="317" cy="839" r="2"/>
		<circle class="st4" cx="315" cy="836" r="2"/>
		<ellipse class="st4" cx="313" cy="833.5" rx="2" ry="2.5"/>
		<ellipse class="st4" cx="311" cy="831.5" rx="2" ry="1.5"/>
		<ellipse class="st4" cx="309.5" cy="830" rx="1.5" ry="2"/>
		<ellipse class="st4" cx="307" cy="828.5" rx="2" ry="1.5"/>
		<circle class="st4" cx="304" cy="828" r="2"/>
		<circle class="st4" cx="301" cy="827" r="2"/>
		<ellipse class="st4" cx="298" cy="827" rx="2" ry="1"/>
		<circle class="st4" cx="295.5" cy="827.5" r="1.5"/>
		<ellipse class="st4" cx="292.5" cy="827" rx="1.5" ry="1"/>
		<ellipse class="st4" cx="289.5" cy="828" rx="2.5" ry="1"/>
		<ellipse class="st4" cx="287" cy="829.5" rx="2" ry="1.5"/>
		<ellipse class="st4" cx="284.5" cy="832" rx="2.5" ry="2"/>
		<ellipse class="st4" cx="282" cy="834.5" rx="2" ry="2.5"/>
		<circle class="st4" cx="280" cy="837" r="2"/>
		<circle class="st4" cx="279" cy="840" r="2"/>
		<circle class="st4" cx="279.5" cy="842.5" r="1.5"/>
		<ellipse class="st4" cx="280" cy="844.5" rx="1" ry="1.5"/>
		<circle class="st4" cx="282" cy="847" r="2"/>
		<ellipse class="st4" cx="283.5" cy="850" rx="1.5" ry="2"/>
		<ellipse class="st4" cx="285.5" cy="851" rx="1.5" ry="2"/>
		<ellipse class="st4" cx="287.5" cy="852" rx="1.5" ry="2"/>
		<ellipse class="st4" cx="290" cy="853.5" rx="2" ry="2.5"/>
		<ellipse class="st4" cx="293" cy="854.5" rx="2" ry="1.5"/>
	</g>
	<ellipse class="st2" cx="568.9" cy="867" rx="4.4" ry="41"/>
	<g id="copa-3" class="st3">
		<ellipse class="st4" cx="569" cy="840.5" rx="19" ry="13.5"/>
		<ellipse class="st4" cx="572.5" cy="854" rx="2.5" ry="2"/>
		<ellipse class="st4" cx="576" cy="852.5" rx="2" ry="2.5"/>
		<ellipse class="st4" cx="578.5" cy="851" rx="2.5" ry="3"/>
		<ellipse class="st4" cx="582" cy="849.5" rx="3" ry="2.5"/>
		<ellipse class="st4" cx="585" cy="846.5" rx="2" ry="2.5"/>
		<circle class="st4" cx="587" cy="845" r="2"/>
		<circle class="st4" cx="587" cy="842" r="2"/>
		<circle class="st4" cx="588" cy="839" r="2"/>
		<circle class="st4" cx="586" cy="836" r="2"/>
		<ellipse class="st4" cx="584" cy="833.5" rx="2" ry="2.5"/>
		<ellipse class="st4" cx="582" cy="831.5" rx="2" ry="1.5"/>
		<ellipse class="st4" cx="580.5" cy="830" rx="1.5" ry="2"/>
		<ellipse class="st4" cx="578" cy="828.5" rx="2" ry="1.5"/>
		<circle class="st4" cx="575" cy="828" r="2"/>
		<circle class="st4" cx="572" cy="827" r="2"/>
		<ellipse class="st4" cx="569" cy="827" rx="2" ry="1"/>
		<circle class="st4" cx="566.5" cy="827.5" r="1.5"/>
		<ellipse class="st4" cx="563.5" cy="827" rx="1.5" ry="1"/>
		<ellipse class="st4" cx="560.5" cy="828" rx="2.5" ry="1"/>
		<ellipse class="st4" cx="558" cy="829.5" rx="2" ry="1.5"/>
		<ellipse class="st4" cx="555.5" cy="832" rx="2.5" ry="2"/>
		<ellipse class="st4" cx="553" cy="834.5" rx="2" ry="2.5"/>
		<circle class="st4" cx="551" cy="837" r="2"/>
		<circle class="st4" cx="550" cy="840" r="2"/>
		<circle class="st4" cx="550.5" cy="842.5" r="1.5"/>
		<ellipse class="st4" cx="551" cy="844.5" rx="1" ry="1.5"/>
		<circle class="st4" cx="553" cy="847" r="2"/>
		<ellipse class="st4" cx="554.5" cy="850" rx="1.5" ry="2"/>
		<ellipse class="st4" cx="556.5" cy="851" rx="1.5" ry="2"/>
		<ellipse class="st4" cx="558.5" cy="852" rx="1.5" ry="2"/>
		<ellipse class="st4" cx="561" cy="853.5" rx="2" ry="2.5"/>
		<ellipse class="st4" cx="564" cy="854.5" rx="2" ry="1.5"/>
	</g>
	<ellipse class="st2" cx="933.9" cy="863" rx="4.4" ry="41"/>
	<g id="copa-4" class="st3">
		<ellipse class="st4" cx="934" cy="836.5" rx="19" ry="13.5"/>
		<ellipse class="st4" cx="937.5" cy="850" rx="2.5" ry="2"/>
		<ellipse class="st4" cx="941" cy="848.5" rx="2" ry="2.5"/>
		<ellipse class="st4" cx="943.5" cy="847" rx="2.5" ry="3"/>
		<ellipse class="st4" cx="947" cy="845.5" rx="3" ry="2.5"/>
		<ellipse class="st4" cx="950" cy="842.5" rx="2" ry="2.5"/>
		<circle class="st4" cx="952" cy="841" r="2"/>
		<circle class="st4" cx="952" cy="838" r="2"/>
		<circle class="st4" cx="953" cy="835" r="2"/>
		<circle class="st4" cx="951" cy="832" r="2"/>
		<ellipse class="st4" cx="949" cy="829.5" rx="2" ry="2.5"/>
		<ellipse class="st4" cx="947" cy="827.5" rx="2" ry="1.5"/>
		<ellipse class="st4" cx="945.5" cy="826" rx="1.5" ry="2"/>
		<ellipse class="st4" cx="943" cy="824.5" rx="2" ry="1.5"/>
		<circle class="st4" cx="940" cy="824" r="2"/>
		<circle class="st4" cx="937" cy="823" r="2"/>
		<ellipse class="st4" cx="934" cy="823" rx="2" ry="1"/>
		<circle class="st4" cx="931.5" cy="823.5" r="1.5"/>
		<ellipse class="st4" cx="928.5" cy="823" rx="1.5" ry="1"/>
		<ellipse class="st4" cx="925.5" cy="824" rx="2.5" ry="1"/>
		<ellipse class="st4" cx="923" cy="825.5" rx="2" ry="1.5"/>
		<ellipse class="st4" cx="920.5" cy="828" rx="2.5" ry="2"/>
		<ellipse class="st4" cx="918" cy="830.5" rx="2" ry="2.5"/>
		<circle class="st4" cx="916" cy="833" r="2"/>
		<circle class="st4" cx="915" cy="836" r="2"/>
		<circle class="st4" cx="915.5" cy="838.5" r="1.5"/>
		<ellipse class="st4" cx="916" cy="840.5" rx="1" ry="1.5"/>
		<circle class="st4" cx="918" cy="843" r="2"/>
		<ellipse class="st4" cx="919.5" cy="846" rx="1.5" ry="2"/>
		<ellipse class="st4" cx="921.5" cy="847" rx="1.5" ry="2"/>
		<ellipse class="st4" cx="923.5" cy="848" rx="1.5" ry="2"/>
		<ellipse class="st4" cx="926" cy="849.5" rx="2" ry="2.5"/>
		<ellipse class="st4" cx="929" cy="850.5" rx="2" ry="1.5"/>
	</g>
</g>
<g id="houses" class="st1">
	<circle class="st2" cx="1313" cy="895.8" r="131"/>
	<path class="st2" d="M1920,761v260.2c-71.8,21.9-147.8-18.6-169.8-90.4s18.6-147.8,90.4-169.8C1866.5,753.1,1894.1,753.1,1920,761z
		"/>
	<circle class="st2" cx="1200.5" cy="896.8" r="74.5"/>
	<circle class="st2" cx="1568" cy="896.1" r="74.5"/>
</g>
<g id="separation" class="st1">
	<rect y="896" class="st2" width="1920" height="184"/>
</g>
</svg>
