<svg id="Capa_2" data-name="Capa 2" xmlns="http://www.w3.org/2000/svg" viewBox="0 0 204.38 154.9"><defs><style>.cls-1{fill:#fff;}</style></defs><g id="图层_2" data-name="图层 2"><g id="Discord_Logos" data-name="Discord Logos"><g id="Discord_Logo_-_Large_-_White" data-name="Discord Logo - Large - White"><path class="cls-1" d="M173.13,37.52a168.73,168.73,0,0,0-42.17-13,117.55,117.55,0,0,0-5.4,11,156.81,156.81,0,0,0-46.79,0,117.55,117.55,0,0,0-5.4-11,170.4,170.4,0,0,0-42.2,13C4.48,77-2.75,115.54.87,153.49h0a170.07,170.07,0,0,0,51.71,26,125.37,125.37,0,0,0,11.08-17.86,109,109,0,0,1-17.44-8.33c1.46-1.06,2.89-2.15,4.27-3.21a121.48,121.48,0,0,0,103.4,0c1.4,1.14,2.83,2.23,4.27,3.21a110.65,110.65,0,0,1-17.47,8.35,122.85,122.85,0,0,0,11.08,17.84,169.07,169.07,0,0,0,51.74-25.95h0C207.76,109.49,196.26,71.34,173.13,37.52ZM68.24,130.15c-10.08,0-18.41-9.15-18.41-20.4s8-20.48,18.38-20.48,18.6,9.23,18.42,20.48S78.51,130.15,68.24,130.15Zm67.9,0c-10.09,0-18.39-9.15-18.39-20.4s8-20.48,18.39-20.48,18.55,9.23,18.37,20.48S146.41,130.15,136.14,130.15Z" transform="translate(0 -24.55)"/></g></g></g></svg>