<svg xmlns="http://www.w3.org/2000/svg" viewBox="0 0 204.38 199.39"><path id="github-logo" d="M102.23,2.3A102.22,102.22,0,0,0,70,201.52c5.07,1,7-2.21,7-4.89,0-2.43-.09-10.48-.14-19-28.45,6.14-34.44-12.08-34.44-12.08-4.64-11.87-11.36-15-11.36-15-9.27-6.35.7-6.21.7-6.21,10.27.73,15.63,10.53,15.63,10.53,9.13,15.63,23.92,11.12,29.75,8.46,1-6.6,3.57-11.1,6.5-13.68C61,147.09,37,138.32,37,99.15A39.59,39.59,0,0,1,47.57,71.7c-1.07-2.58-4.57-13,1-27.09,0,0,8.58-2.74,28.11,10.48a97.11,97.11,0,0,1,51.2,0C147.3,42,156,44.62,156,44.62c5.55,14.09,2.07,24.44,1,27.09a39.48,39.48,0,0,1,10.52,27.43c0,39.28-23.9,47.9-46.67,50.45,3.65,3.16,6.93,9.39,6.93,18.92,0,13.68-.11,24.7-.11,28.05,0,2.73,1.83,5.87,7,4.89A102.23,102.23,0,0,0,102.23,2.3Z"/></svg>