<svg id="Capa_2" data-name="Capa 2" xmlns="http://www.w3.org/2000/svg" viewBox="0 0 204.23 203.91"><defs><style>.cls-1{fill:#fff;}</style></defs><path class="cls-1" d="M162,203.9V137.67c0-15.8-.28-36.13-22-36.13-22,0-25.39,17.21-25.39,35V203.9H72.26V67.71h40.58V86.33h.57a44.58,44.58,0,0,1,40.06-22c42.86,0,50.76,28.2,50.76,64.87v74.7Z" transform="translate(0 0)"/><rect class="cls-1" x="3.36" y="67.72" width="42.34" height="136.19"/><path class="cls-1" d="M49.08,24.52h0A24.64,24.64,0,0,1,24.55,49.08h0A24.54,24.54,0,1,1,49.08,24.52Z" transform="translate(0 0)"/></svg>