<svg id="Capa_2" data-name="Capa 2" xmlns="http://www.w3.org/2000/svg" viewBox="0 0 204 204"><defs><style>.cls-1{fill:#1c1b20;}</style></defs><path class="cls-1" d="M189.08,0H15.24a15,15,0,0,0-15,14.72V189.28a15,15,0,0,0,15,14.72H189.08a15,15,0,0,0,15.11-14.72V14.7A15,15,0,0,0,189.08,0ZM60.69,173.82H30.43V76.48H60.69Zm2.42-128.2h0A17.61,17.61,0,0,1,45.58,63.16h0A17.54,17.54,0,1,1,63.11,45.61ZM174,173.82H143.78V126.48c0-11.29-.2-25.82-15.72-25.82-15.74,0-18.15,12.3-18.15,25v48.16H79.68V76.48h29V89.79h.41a31.85,31.85,0,0,1,28.63-15.73c30.64,0,36.28,20.16,36.28,46.37Z" transform="translate(-0.19)"/></svg>