<svg id="Capa_2" data-name="Capa 2" xmlns="http://www.w3.org/2000/svg" viewBox="0 0 203.95 204"><defs><style>.cls-1{fill:#fff;}</style></defs><path class="cls-1" d="M188.89,0H15.05a15,15,0,0,0-15,14.72V189.28a15,15,0,0,0,15,14.72H188.89A15,15,0,0,0,204,189.28V14.7A15,15,0,0,0,188.89,0ZM60.5,173.82H30.24V76.48H60.5Zm2.42-128.2h0A17.61,17.61,0,0,1,45.39,63.16h0A17.54,17.54,0,1,1,62.92,45.61Zm110.89,128.2H143.59V126.48c0-11.29-.2-25.82-15.72-25.82-15.74,0-18.15,12.3-18.15,25v48.16H79.49V76.48h29V89.79h.41a31.85,31.85,0,0,1,28.63-15.73c30.64,0,36.28,20.16,36.28,46.37Z" transform="translate(-0.05 0)"/></svg>