<svg id="Capa_2" data-name="Capa 2" xmlns="http://www.w3.org/2000/svg" viewBox="0 0 204.38 166.03"><defs><style>.cls-1{fill:#fff;}</style></defs><path id="white_background" data-name="white background" class="cls-1" d="M183.54,60.28c.08,1.83.08,3.57.08,5.4C183.62,121.07,141.43,185,64.28,185h0A119.24,119.24,0,0,1,0,166.29a80.91,80.91,0,0,0,10,.58,84.15,84.15,0,0,0,52.08-18,42,42,0,0,1-39.2-29.15,40.5,40.5,0,0,0,19-.75A42,42,0,0,1,8.14,77.8v-.51A41.34,41.34,0,0,0,27.2,82.54a41.94,41.94,0,0,1-13-56,119.39,119.39,0,0,0,86.46,43.85,41.93,41.93,0,0,1,71.41-38.2A84.25,84.25,0,0,0,198.73,22,42.19,42.19,0,0,1,180.3,45.15a84,84,0,0,0,24.08-6.6A82.38,82.38,0,0,1,183.54,60.28Z" transform="translate(0 -18.98)"/></svg>