<svg xmlns="http://www.w3.org/2000/svg" viewBox="0 0 1920 1080"><defs><style>.cls-1{fill:#000a33;}.cls-2{fill:#041147;}</style></defs><g id="bg"><rect class="cls-1" width="1920" height="1080"/></g><g id="people"><ellipse class="cls-2" cx="1060.5" cy="879.89" rx="3.5" ry="19.11"/><ellipse class="cls-2" cx="1060.5" cy="862.21" rx="6.5" ry="6.21"/><ellipse class="cls-2" cx="870.25" cy="879.89" rx="2" ry="19.11"/><ellipse class="cls-2" cx="870.25" cy="862.21" rx="6.5" ry="6.21"/><ellipse class="cls-2" cx="997.25" cy="879.89" rx="2" ry="19.11"/><ellipse class="cls-2" cx="997.25" cy="862.21" rx="6.5" ry="6.21"/><ellipse class="cls-2" cx="598.25" cy="879.89" rx="2" ry="19.11"/><ellipse class="cls-2" cx="598.25" cy="862.21" rx="6.5" ry="6.21"/><ellipse class="cls-2" cx="410.25" cy="879.89" rx="2" ry="19.11"/><ellipse class="cls-2" cx="410.25" cy="862.21" rx="6.5" ry="6.21"/><ellipse class="cls-2" cx="780.5" cy="879.89" rx="3.5" ry="19.11"/><ellipse class="cls-2" cx="780.5" cy="862.21" rx="6.5" ry="6.21"/><ellipse class="cls-2" cx="795.5" cy="879.89" rx="3.5" ry="19.11"/><ellipse class="cls-2" cx="795.5" cy="862.21" rx="6.5" ry="6.21"/><ellipse class="cls-2" cx="618.5" cy="881.89" rx="6.5" ry="19.11"/><ellipse class="cls-2" cx="618.5" cy="864.21" rx="7.5" ry="6.21"/><ellipse class="cls-2" cx="339.5" cy="881.89" rx="6.5" ry="19.11"/><ellipse class="cls-2" cx="339.5" cy="864.21" rx="7.5" ry="6.21"/><ellipse class="cls-2" cx="959.5" cy="881.89" rx="6.5" ry="19.11"/><ellipse class="cls-2" cx="959.5" cy="864.21" rx="7.5" ry="6.21"/><ellipse class="cls-2" cx="637.5" cy="879.89" rx="3.5" ry="19.11"/><ellipse class="cls-2" cx="637.5" cy="862.21" rx="6.5" ry="6.21"/><ellipse class="cls-2" cx="87.5" cy="879.89" rx="3.5" ry="19.11"/><ellipse class="cls-2" cx="87.5" cy="862.21" rx="6.5" ry="6.21"/><ellipse class="cls-2" cx="68.5" cy="879.89" rx="3.5" ry="19.11"/><ellipse class="cls-2" cx="68.5" cy="862.21" rx="6.5" ry="6.21"/></g><g id="trees"><ellipse class="cls-2" cx="502.92" cy="867" rx="4.43" ry="41"/><ellipse class="cls-2" cx="512.81" cy="831.1" rx="1.93" ry="12.28" transform="translate(-443.72 1027.97) rotate(-69.95)"/><ellipse class="cls-2" cx="513.75" cy="828.2" rx="1.93" ry="12.25" transform="translate(-356.28 1267.41) rotate(-84.97)"/><ellipse class="cls-2" cx="509.98" cy="834" rx="1.91" ry="12.38" transform="translate(-452.44 662.59) rotate(-48.46)"/><ellipse class="cls-2" cx="490.66" cy="831.5" rx="13.45" ry="1.93" transform="translate(-255.25 218.5) rotate(-20.04)"/><ellipse class="cls-2" cx="492.7" cy="825.3" rx="1.93" ry="12.27" transform="translate(-440.57 1055.27) rotate(-73.01)"/><ellipse class="cls-2" cx="511.54" cy="825.3" rx="12.27" ry="1.93" transform="matrix(0.96, -0.27, 0.27, 0.96, -204.93, 169.96)"/><ellipse class="cls-2" cx="491.43" cy="828.15" rx="11.63" ry="1.93" transform="translate(-70.68 46.25) rotate(-5.03)"/><ellipse class="cls-2" cx="494.12" cy="834.71" rx="12.29" ry="1.99" transform="translate(-409.03 480.84) rotate(-37.98)"/><ellipse class="cls-2" cx="498.68" cy="824.27" rx="1.44" ry="5.93" transform="translate(-464.67 832.17) rotate(-59.3)"/><ellipse class="cls-2" cx="507.15" cy="824.27" rx="5.93" ry="1.44" transform="matrix(0.86, -0.51, 0.51, 0.86, -349.78, 374.5)"/><ellipse class="cls-2" cx="1022.92" cy="867" rx="4.43" ry="41"/><ellipse class="cls-2" cx="1032.81" cy="831.1" rx="1.93" ry="12.28" transform="translate(-101.96 1516.47) rotate(-69.95)"/><ellipse class="cls-2" cx="1033.75" cy="828.2" rx="1.93" ry="12.25" transform="translate(118.16 1785.41) rotate(-84.97)"/><ellipse class="cls-2" cx="1029.98" cy="834" rx="1.91" ry="12.38" transform="translate(-277.3 1051.78) rotate(-48.46)"/><ellipse class="cls-2" cx="1010.66" cy="831.5" rx="13.45" ry="1.93" transform="translate(-223.76 396.71) rotate(-20.04)"/><ellipse class="cls-2" cx="1012.7" cy="825.3" rx="1.93" ry="12.27" transform="translate(-72.56 1552.56) rotate(-73.01)"/><ellipse class="cls-2" cx="1031.54" cy="825.3" rx="12.27" ry="1.93" transform="translate(-185.38 311.19) rotate(-15.76)"/><ellipse class="cls-2" cx="1011.43" cy="828.15" rx="11.63" ry="1.93" transform="translate(-68.68 91.82) rotate(-5.03)"/><ellipse class="cls-2" cx="1014.12" cy="834.71" rx="12.29" ry="1.99" transform="translate(-298.9 800.84) rotate(-37.98)"/><ellipse class="cls-2" cx="1018.68" cy="824.27" rx="1.44" ry="5.93" transform="matrix(0.51, -0.86, 0.86, 0.51, -210.19, 1279.27)"/><ellipse class="cls-2" cx="1027.15" cy="824.27" rx="5.93" ry="1.44" transform="translate(-276.89 640.01) rotate(-30.7)"/><ellipse class="cls-2" cx="385.92" cy="867" rx="4.43" ry="41"/><ellipse class="cls-2" cx="395.81" cy="831.1" rx="1.93" ry="12.28" transform="translate(-520.61 918.06) rotate(-69.95)"/><ellipse class="cls-2" cx="396.75" cy="828.2" rx="1.93" ry="12.25" transform="translate(-463.03 1150.86) rotate(-84.97)"/><ellipse class="cls-2" cx="392.98" cy="834" rx="1.91" ry="12.38" transform="translate(-491.84 575.02) rotate(-48.46)"/><ellipse class="cls-2" cx="373.66" cy="831.5" rx="13.45" ry="1.93" transform="translate(-262.33 178.41) rotate(-20.04)"/><ellipse class="cls-2" cx="375.7" cy="825.3" rx="1.93" ry="12.27" transform="translate(-523.38 943.38) rotate(-73.01)"/><ellipse class="cls-2" cx="394.54" cy="825.3" rx="12.27" ry="1.93" transform="matrix(0.96, -0.27, 0.27, 0.96, -209.32, 138.18)"/><ellipse class="cls-2" cx="374.43" cy="828.15" rx="11.63" ry="1.93" transform="translate(-71.13 36) rotate(-5.03)"/><ellipse class="cls-2" cx="377.12" cy="834.71" rx="12.29" ry="1.99" transform="translate(-433.8 408.84) rotate(-37.98)"/><ellipse class="cls-2" cx="381.68" cy="824.27" rx="1.44" ry="5.93" transform="translate(-521.93 731.57) rotate(-59.3)"/><ellipse class="cls-2" cx="390.15" cy="824.27" rx="5.93" ry="1.44" transform="matrix(0.86, -0.51, 0.51, 0.86, -366.18, 314.76)"/><ellipse class="cls-2" cx="225.92" cy="867" rx="4.43" ry="41"/><ellipse class="cls-2" cx="235.81" cy="831.1" rx="1.93" ry="12.28" transform="translate(-625.77 767.75) rotate(-69.95)"/><ellipse class="cls-2" cx="236.75" cy="828.2" rx="1.93" ry="12.25" transform="translate(-609.01 991.48) rotate(-84.97)"/><ellipse class="cls-2" cx="232.98" cy="834" rx="1.91" ry="12.38" transform="translate(-545.73 455.27) rotate(-48.46)"/><ellipse class="cls-2" cx="213.66" cy="831.5" rx="13.45" ry="1.93" transform="translate(-272.02 123.57) rotate(-20.04)"/><ellipse class="cls-2" cx="215.7" cy="825.3" rx="1.93" ry="12.27" transform="translate(-636.61 790.37) rotate(-73.01)"/><ellipse class="cls-2" cx="234.54" cy="825.3" rx="12.27" ry="1.93" transform="matrix(0.96, -0.27, 0.27, 0.96, -215.34, 94.73)"/><ellipse class="cls-2" cx="214.43" cy="828.15" rx="11.63" ry="1.93" transform="translate(-71.75 21.98) rotate(-5.03)"/><ellipse class="cls-2" cx="217.12" cy="834.71" rx="12.29" ry="1.99" transform="translate(-467.69 310.38) rotate(-37.98)"/><ellipse class="cls-2" cx="221.68" cy="824.27" rx="1.44" ry="5.93" transform="translate(-600.24 594) rotate(-59.3)"/><ellipse class="cls-2" cx="230.15" cy="824.27" rx="5.93" ry="1.44" transform="translate(-388.61 233.06) rotate(-30.7)"/><ellipse class="cls-2" cx="176.92" cy="867" rx="4.43" ry="41"/><ellipse class="cls-2" cx="186.81" cy="831.1" rx="1.93" ry="12.28" transform="translate(-657.98 721.72) rotate(-69.95)"/><ellipse class="cls-2" cx="187.75" cy="828.2" rx="1.93" ry="12.25" transform="translate(-653.72 942.67) rotate(-84.97)"/><ellipse class="cls-2" cx="183.98" cy="834" rx="1.91" ry="12.38" transform="translate(-562.24 418.6) rotate(-48.46)"/><ellipse class="cls-2" cx="164.66" cy="831.5" rx="13.45" ry="1.93" transform="translate(-274.99 106.78) rotate(-20.04)"/><ellipse class="cls-2" cx="166.7" cy="825.3" rx="1.93" ry="12.27" transform="translate(-671.29 743.51) rotate(-73.01)"/><ellipse class="cls-2" cx="185.54" cy="825.3" rx="12.27" ry="1.93" transform="matrix(0.96, -0.27, 0.27, 0.96, -217.18, 81.42)"/><ellipse class="cls-2" cx="165.43" cy="828.15" rx="11.63" ry="1.93" transform="translate(-71.93 17.68) rotate(-5.03)"/><ellipse class="cls-2" cx="168.12" cy="834.71" rx="12.29" ry="1.99" transform="translate(-478.06 280.23) rotate(-37.98)"/><ellipse class="cls-2" cx="172.68" cy="824.27" rx="1.44" ry="5.93" transform="translate(-624.22 551.87) rotate(-59.3)"/><ellipse class="cls-2" cx="181.15" cy="824.27" rx="5.93" ry="1.44" transform="translate(-395.48 208.05) rotate(-30.7)"/><ellipse class="cls-2" cx="14.92" cy="867" rx="4.43" ry="41"/><g id="copa"><path class="cls-2" d="M34,840.5c0,.17,0,.33,0,.5a10,10,0,0,1-.35,2.11,8.63,8.63,0,0,1-.28.86,9.86,9.86,0,0,1-.6,1.33h0a10.41,10.41,0,0,1-.87,1.36,11.83,11.83,0,0,1-1.31,1.55,5.9,5.9,0,0,1-.51.49A16.69,16.69,0,0,1,27,851l-.88.48a19.42,19.42,0,0,1-2.12.94c-.47.18-.95.35-1.44.5s-1.12.32-1.7.45c-.23.06-.47.11-.7.15s-.7.14-1.05.19A26.21,26.21,0,0,1,16,854l-1,0a26.3,26.3,0,0,1-3.23-.2l-1-.14c-.59-.1-1.17-.21-1.74-.36a.31.31,0,0,1-.13,0A22.07,22.07,0,0,1,6,852.38l-.64-.26c-.48-.2-.94-.41-1.38-.64l-.77-.41c-.42-.24-.82-.48-1.2-.74s-.47-.32-.69-.49A13.48,13.48,0,0,1,0,848.78V832.22a15.92,15.92,0,0,1,2.4-1.82l.27-.17a19.49,19.49,0,0,1,2.66-1.35l.38-.16a23.64,23.64,0,0,1,2.88-.93l.31-.07c.66-.17,1.33-.3,2-.41l.1,0c.65-.09,1.32-.17,2-.22.3,0,.6,0,.9,0h0L15,827c.3,0,.6,0,.9,0H16l1,.05c.72.06,1.43.14,2.13.25l.82.14a22.35,22.35,0,0,1,2.18.53,8.52,8.52,0,0,1,.86.26,19.12,19.12,0,0,1,2.19.85l.5.23a16.63,16.63,0,0,1,1.51.81c.26.15.5.3.74.46s.73.5,1.06.76.59.47.87.72A13.81,13.81,0,0,1,31.67,834l.22.29a11.19,11.19,0,0,1,1.5,2.78,1.83,1.83,0,0,1,.08.25,9.23,9.23,0,0,1,.52,2.91h0A1.77,1.77,0,0,1,34,840.5Z"/><ellipse class="cls-2" cx="18.5" cy="854" rx="2.5" ry="2"/><ellipse class="cls-2" cx="22" cy="852.5" rx="2" ry="2.5"/><ellipse class="cls-2" cx="24.5" cy="851" rx="2.5" ry="3"/><ellipse class="cls-2" cx="28" cy="849.5" rx="3" ry="2.5"/><ellipse class="cls-2" cx="31" cy="846.5" rx="2" ry="2.5"/><circle class="cls-2" cx="33" cy="845" r="2"/><circle class="cls-2" cx="33" cy="842" r="2"/><circle class="cls-2" cx="34" cy="839" r="2"/><circle class="cls-2" cx="32" cy="836" r="2"/><ellipse class="cls-2" cx="30" cy="833.5" rx="2" ry="2.5"/><ellipse class="cls-2" cx="28" cy="831.5" rx="2" ry="1.5"/><ellipse class="cls-2" cx="26.5" cy="830" rx="1.5" ry="2"/><ellipse class="cls-2" cx="24" cy="828.5" rx="2" ry="1.5"/><circle class="cls-2" cx="21" cy="828" r="2"/><circle class="cls-2" cx="18" cy="827" r="2"/><ellipse class="cls-2" cx="15" cy="827" rx="2" ry="1"/><circle class="cls-2" cx="12.5" cy="827.5" r="1.5"/><ellipse class="cls-2" cx="9.5" cy="827" rx="1.5" ry="1"/><ellipse class="cls-2" cx="6.5" cy="828" rx="2.5" ry="1"/><ellipse class="cls-2" cx="4" cy="829.5" rx="2" ry="1.5"/><path class="cls-2" d="M4,832a2.3,2.3,0,0,1-2.5,2A3.31,3.31,0,0,1,1,834,2.63,2.63,0,0,1,0,833.6v-3.2a2.92,2.92,0,0,1,1.5-.4,2.81,2.81,0,0,1,.65.07,2.86,2.86,0,0,1,.52.16,2.35,2.35,0,0,1,1,.74A1.68,1.68,0,0,1,4,832Z"/><path class="cls-2" d="M1,834.5a2.65,2.65,0,0,1-1,2.16v-4.32A2.47,2.47,0,0,1,1,834,3.31,3.31,0,0,1,1,834.5Z"/><path class="cls-2" d="M1,847a2,2,0,0,1-.28,1,2,2,0,0,1-.72.71v-3.46A2,2,0,0,1,1,847Z"/><path class="cls-2" d="M2,850c0,.11,0,.22,0,.33a2,2,0,0,1-.85,1.48A1.09,1.09,0,0,1,.5,852a1.22,1.22,0,0,1-.5-.11v-3.77A1.08,1.08,0,0,1,.5,848l.22,0a1.64,1.64,0,0,1,1.15,1.17A2.64,2.64,0,0,1,2,850Z"/><ellipse class="cls-2" cx="2.5" cy="851" rx="1.5" ry="2"/><ellipse class="cls-2" cx="4.5" cy="852" rx="1.5" ry="2"/><ellipse class="cls-2" cx="7" cy="853.5" rx="2" ry="2.5"/><ellipse class="cls-2" cx="10" cy="854.5" rx="2" ry="1.5"/></g><ellipse class="cls-2" cx="297.92" cy="867" rx="4.43" ry="41"/><g id="copa-2" data-name="copa"><ellipse class="cls-2" cx="298" cy="840.5" rx="19" ry="13.5"/><ellipse class="cls-2" cx="301.5" cy="854" rx="2.5" ry="2"/><ellipse class="cls-2" cx="305" cy="852.5" rx="2" ry="2.5"/><ellipse class="cls-2" cx="307.5" cy="851" rx="2.5" ry="3"/><ellipse class="cls-2" cx="311" cy="849.5" rx="3" ry="2.5"/><ellipse class="cls-2" cx="314" cy="846.5" rx="2" ry="2.5"/><circle class="cls-2" cx="316" cy="845" r="2"/><circle class="cls-2" cx="316" cy="842" r="2"/><circle class="cls-2" cx="317" cy="839" r="2"/><circle class="cls-2" cx="315" cy="836" r="2"/><ellipse class="cls-2" cx="313" cy="833.5" rx="2" ry="2.5"/><ellipse class="cls-2" cx="311" cy="831.5" rx="2" ry="1.5"/><ellipse class="cls-2" cx="309.5" cy="830" rx="1.5" ry="2"/><ellipse class="cls-2" cx="307" cy="828.5" rx="2" ry="1.5"/><circle class="cls-2" cx="304" cy="828" r="2"/><circle class="cls-2" cx="301" cy="827" r="2"/><ellipse class="cls-2" cx="298" cy="827" rx="2" ry="1"/><circle class="cls-2" cx="295.5" cy="827.5" r="1.5"/><ellipse class="cls-2" cx="292.5" cy="827" rx="1.5" ry="1"/><ellipse class="cls-2" cx="289.5" cy="828" rx="2.5" ry="1"/><ellipse class="cls-2" cx="287" cy="829.5" rx="2" ry="1.5"/><ellipse class="cls-2" cx="284.5" cy="832" rx="2.5" ry="2"/><ellipse class="cls-2" cx="282" cy="834.5" rx="2" ry="2.5"/><circle class="cls-2" cx="280" cy="837" r="2"/><circle class="cls-2" cx="279" cy="840" r="2"/><circle class="cls-2" cx="279.5" cy="842.5" r="1.5"/><ellipse class="cls-2" cx="280" cy="844.5" rx="1" ry="1.5"/><circle class="cls-2" cx="282" cy="847" r="2"/><ellipse class="cls-2" cx="283.5" cy="850" rx="1.5" ry="2"/><ellipse class="cls-2" cx="285.5" cy="851" rx="1.5" ry="2"/><ellipse class="cls-2" cx="287.5" cy="852" rx="1.5" ry="2"/><ellipse class="cls-2" cx="290" cy="853.5" rx="2" ry="2.5"/><ellipse class="cls-2" cx="293" cy="854.5" rx="2" ry="1.5"/></g><ellipse class="cls-2" cx="568.92" cy="867" rx="4.43" ry="41"/><g id="copa-3" data-name="copa"><ellipse class="cls-2" cx="569" cy="840.5" rx="19" ry="13.5"/><ellipse class="cls-2" cx="572.5" cy="854" rx="2.5" ry="2"/><ellipse class="cls-2" cx="576" cy="852.5" rx="2" ry="2.5"/><ellipse class="cls-2" cx="578.5" cy="851" rx="2.5" ry="3"/><ellipse class="cls-2" cx="582" cy="849.5" rx="3" ry="2.5"/><ellipse class="cls-2" cx="585" cy="846.5" rx="2" ry="2.5"/><circle class="cls-2" cx="587" cy="845" r="2"/><circle class="cls-2" cx="587" cy="842" r="2"/><circle class="cls-2" cx="588" cy="839" r="2"/><circle class="cls-2" cx="586" cy="836" r="2"/><ellipse class="cls-2" cx="584" cy="833.5" rx="2" ry="2.5"/><ellipse class="cls-2" cx="582" cy="831.5" rx="2" ry="1.5"/><ellipse class="cls-2" cx="580.5" cy="830" rx="1.5" ry="2"/><ellipse class="cls-2" cx="578" cy="828.5" rx="2" ry="1.5"/><circle class="cls-2" cx="575" cy="828" r="2"/><circle class="cls-2" cx="572" cy="827" r="2"/><ellipse class="cls-2" cx="569" cy="827" rx="2" ry="1"/><circle class="cls-2" cx="566.5" cy="827.5" r="1.5"/><ellipse class="cls-2" cx="563.5" cy="827" rx="1.5" ry="1"/><ellipse class="cls-2" cx="560.5" cy="828" rx="2.5" ry="1"/><ellipse class="cls-2" cx="558" cy="829.5" rx="2" ry="1.5"/><ellipse class="cls-2" cx="555.5" cy="832" rx="2.5" ry="2"/><ellipse class="cls-2" cx="553" cy="834.5" rx="2" ry="2.5"/><circle class="cls-2" cx="551" cy="837" r="2"/><circle class="cls-2" cx="550" cy="840" r="2"/><circle class="cls-2" cx="550.5" cy="842.5" r="1.5"/><ellipse class="cls-2" cx="551" cy="844.5" rx="1" ry="1.5"/><circle class="cls-2" cx="553" cy="847" r="2"/><ellipse class="cls-2" cx="554.5" cy="850" rx="1.5" ry="2"/><ellipse class="cls-2" cx="556.5" cy="851" rx="1.5" ry="2"/><ellipse class="cls-2" cx="558.5" cy="852" rx="1.5" ry="2"/><ellipse class="cls-2" cx="561" cy="853.5" rx="2" ry="2.5"/><ellipse class="cls-2" cx="564" cy="854.5" rx="2" ry="1.5"/></g><ellipse class="cls-2" cx="933.92" cy="863" rx="4.43" ry="41"/><g id="copa-4" data-name="copa"><ellipse class="cls-2" cx="934" cy="836.5" rx="19" ry="13.5"/><ellipse class="cls-2" cx="937.5" cy="850" rx="2.5" ry="2"/><ellipse class="cls-2" cx="941" cy="848.5" rx="2" ry="2.5"/><ellipse class="cls-2" cx="943.5" cy="847" rx="2.5" ry="3"/><ellipse class="cls-2" cx="947" cy="845.5" rx="3" ry="2.5"/><ellipse class="cls-2" cx="950" cy="842.5" rx="2" ry="2.5"/><circle class="cls-2" cx="952" cy="841" r="2"/><circle class="cls-2" cx="952" cy="838" r="2"/><circle class="cls-2" cx="953" cy="835" r="2"/><circle class="cls-2" cx="951" cy="832" r="2"/><ellipse class="cls-2" cx="949" cy="829.5" rx="2" ry="2.5"/><ellipse class="cls-2" cx="947" cy="827.5" rx="2" ry="1.5"/><ellipse class="cls-2" cx="945.5" cy="826" rx="1.5" ry="2"/><ellipse class="cls-2" cx="943" cy="824.5" rx="2" ry="1.5"/><circle class="cls-2" cx="940" cy="824" r="2"/><circle class="cls-2" cx="937" cy="823" r="2"/><ellipse class="cls-2" cx="934" cy="823" rx="2" ry="1"/><circle class="cls-2" cx="931.5" cy="823.5" r="1.5"/><ellipse class="cls-2" cx="928.5" cy="823" rx="1.5" ry="1"/><ellipse class="cls-2" cx="925.5" cy="824" rx="2.5" ry="1"/><ellipse class="cls-2" cx="923" cy="825.5" rx="2" ry="1.5"/><ellipse class="cls-2" cx="920.5" cy="828" rx="2.5" ry="2"/><ellipse class="cls-2" cx="918" cy="830.5" rx="2" ry="2.5"/><circle class="cls-2" cx="916" cy="833" r="2"/><circle class="cls-2" cx="915" cy="836" r="2"/><circle class="cls-2" cx="915.5" cy="838.5" r="1.5"/><ellipse class="cls-2" cx="916" cy="840.5" rx="1" ry="1.5"/><circle class="cls-2" cx="918" cy="843" r="2"/><ellipse class="cls-2" cx="919.5" cy="846" rx="1.5" ry="2"/><ellipse class="cls-2" cx="921.5" cy="847" rx="1.5" ry="2"/><ellipse class="cls-2" cx="923.5" cy="848" rx="1.5" ry="2"/><ellipse class="cls-2" cx="926" cy="849.5" rx="2" ry="2.5"/><ellipse class="cls-2" cx="929" cy="850.5" rx="2" ry="1.5"/></g></g><g id="houses"><circle class="cls-2" cx="1313" cy="895.79" r="131"/><path class="cls-2" d="M1920,761v260.16A136,136,0,1,1,1920,761Z"/><circle class="cls-2" cx="1200.47" cy="896.75" r="74.47"/><circle class="cls-2" cx="1567.99" cy="896.12" r="74.47"/></g><g id="circles"><ellipse id="_1" data-name="1" class="cls-2" cx="1115.4" cy="603.52" rx="54.4" ry="54.52"/><ellipse id="_2" data-name="2" class="cls-2" cx="1235.4" cy="407.52" rx="34.45" ry="34.52"/><circle id="_3" data-name="3" class="cls-2" cx="1347.4" cy="583.52" r="77.4"/><ellipse id="_4" data-name="4" class="cls-2" cx="1430.4" cy="415.52" rx="54.4" ry="54.52"/><ellipse id="_5" data-name="5" class="cls-2" cx="1477.4" cy="704.55" rx="21.4" ry="21.45"/><circle id="_6" data-name="6" class="cls-2" cx="1667.24" cy="528.41" r="132.48"/><ellipse id="_7" data-name="7" class="cls-2" cx="1520.4" cy="249.55" rx="21.4" ry="21.45"/><ellipse id="_8" data-name="8" class="cls-2" cx="1722.9" cy="282" rx="42.9" ry="43"/></g><g id="separation"><rect class="cls-2" y="896" width="1920" height="184"/></g></svg>