<svg id="Capa_1" data-name="Capa 1" xmlns="http://www.w3.org/2000/svg" viewBox="0 0 312.91 575.14"><defs><style>.cls-1{fill:#fff;}</style></defs><path id="P" class="cls-1" d="M766.45,466.7c0,1.2,0,2.37,0,3.57a388.09,388.09,0,0,1-5.65,62.78,485.83,485.83,0,0,1-58.55-27.86q-2.9-1.6-5.79-3.27A458.32,458.32,0,0,1,643,465.79q-6.46-5-12.7-10.32l-.51-.43c.17,3.86.25,7.76.25,11.66s-.08,8.07-.25,12.07a289.83,289.83,0,0,1-6.32,49.42A299.11,299.11,0,0,1,596,603.61a326.76,326.76,0,0,1-40.6,60,363,363,0,0,1-47.06,46,433.23,433.23,0,0,1-34.12-53.28,285.71,285.71,0,0,0,47.06-55.17,254.61,254.61,0,0,0,29.14-61.06,240.07,240.07,0,0,0,11.2-61.81c.18-3.83.28-7.68.28-11.55s-.08-7.51-.26-11.23a240.38,240.38,0,0,0-15-73q4.49-4.89,8.76-9.9a329.37,329.37,0,0,0,35.91-51.39c1.62-2.84,3.17-5.71,4.69-8.6q2.25,4.33,4.67,8.6a330.73,330.73,0,0,0,35.91,51.39q4.29,5,8.76,9.9a364.41,364.41,0,0,0,38.3,36.07q6.09,5,12.44,9.71c-.84-7.54-2-15-3.28-22.44a346.9,346.9,0,0,0-22.1-73.53c-1.57-3.73-3.23-7.42-4.94-11.08a369.93,369.93,0,0,0-29.18-51.38q-7.44-11-15.71-21.57Q609.2,233.32,596,219.36q-13.2,13.95-24.89,28.88-8.24,10.55-15.71,21.57a371,371,0,0,0-29.18,51.38q-2.57,5.49-4.94,11.08a346.88,346.88,0,0,0-22.09,73.53,428.66,428.66,0,0,1-25-40.55,409.43,409.43,0,0,1-20.67-44.06,411.93,411.93,0,0,1,20.67-44.09,424.73,424.73,0,0,1,25-40.54q4.46-6.44,9.15-12.72a463.08,463.08,0,0,1,40.6-47.27q6.21-6.33,12.68-12.46l.53-.52Q578.3,148.33,596,134.43q17.68,13.92,33.83,29.16l.53.52q6.46,6.13,12.68,12.46a463.08,463.08,0,0,1,40.6,47.27q4.7,6.27,9.16,12.72a426.66,426.66,0,0,1,25,40.54,414,414,0,0,1,20.68,44.09q3.72,9.36,6.95,18.88a392.22,392.22,0,0,1,15,57.77h0A390.38,390.38,0,0,1,766.45,466.7Z" transform="translate(-453.55 -134.43)"/></svg>