<svg xmlns="http://www.w3.org/2000/svg" width="256" height="256" viewBox="0 0 100 100"><path fill="#fff" d="M91.63 36.75L-0.88 36.75Q-2.13 34.75-3 31.63Q-3.88 28.50-3.88 24.75L-3.88 24.75Q-3.88 18.25-0.63 15Q2.63 11.75 8.38 11.75L8.38 11.75L100.88 11.75Q102.13 13.75 103 17Q103.88 20.25 103.88 24L103.88 24Q103.88 30.75 100.63 33.75Q97.38 36.75 91.63 36.75L91.63 36.75ZM91.63 88.25L-0.88 88.25Q-2.13 86.25-3 83.13Q-3.88 80-3.88 76.25L-3.88 76.25Q-3.88 69.50-0.63 66.38Q2.63 63.25 8.38 63.25L8.38 63.25L100.88 63.25Q102.13 65.25 103 68.50Q103.88 71.75 103.88 75.50L103.88 75.50Q103.88 82.25 100.63 85.25Q97.38 88.25 91.63 88.25L91.63 88.25Z"></path></svg>